<svg xmlns="http://www.w3.org/2000/svg" xmlns:xlink="http://www.w3.org/1999/xlink" width="172" zoomAndPan="magnify" viewBox="0 0 129 51.749998" height="69" preserveAspectRatio="xMidYMid meet" version="1.0"><defs><g/></defs><g fill="#971f16" fill-opacity="1"><g transform="translate(12.211419, 37.678514)"><g><path d="M 17.75 0 L 11.4375 0 L 11.4375 -0.546875 L 13.4375 -0.546875 L 11.28125 -6.5 L 4.5 -6.5 L 2.34375 -0.546875 L 4.34375 -0.546875 L 4.34375 0 L -0.3125 0 L -0.3125 -0.546875 L 0.828125 -0.546875 C 1.117188 -0.546875 1.316406 -0.691406 1.421875 -0.984375 L 8.203125 -19.40625 L 9.25 -19.40625 L 16.015625 -0.984375 C 16.117188 -0.691406 16.316406 -0.546875 16.609375 -0.546875 L 17.75 -0.546875 Z M 7.921875 -15.78125 L 4.84375 -7.359375 L 10.96875 -7.359375 Z M 7.921875 -15.78125 "/></g></g></g><g fill="#ffffff" fill-opacity="1"><g transform="translate(30.997194, 37.124503)"><g><path d="M 2.40625 -8.140625 C 2.40625 -7.703125 2.578125 -7.296875 2.921875 -6.921875 C 3.265625 -6.554688 3.679688 -6.234375 4.171875 -5.953125 C 4.660156 -5.671875 5.148438 -5.378906 5.640625 -5.078125 C 6.128906 -4.785156 6.546875 -4.425781 6.890625 -4 C 7.234375 -3.570312 7.40625 -3.101562 7.40625 -2.59375 C 7.40625 -1.78125 7.101562 -1.113281 6.5 -0.59375 C 5.894531 -0.0820312 5.082031 0.171875 4.0625 0.171875 C 3.039062 0.171875 2.03125 -0.0195312 1.03125 -0.40625 L 1.03125 -1.109375 C 2.039062 -0.597656 2.898438 -0.34375 3.609375 -0.34375 C 4.316406 -0.34375 4.867188 -0.515625 5.265625 -0.859375 C 5.660156 -1.210938 5.859375 -1.695312 5.859375 -2.3125 C 5.859375 -2.726562 5.695312 -3.101562 5.375 -3.4375 C 5.050781 -3.78125 4.65625 -4.078125 4.1875 -4.328125 C 3.71875 -4.585938 3.25 -4.851562 2.78125 -5.125 C 2.3125 -5.394531 1.914062 -5.734375 1.59375 -6.140625 C 1.269531 -6.554688 1.109375 -7.054688 1.109375 -7.640625 C 1.109375 -8.222656 1.367188 -8.765625 1.890625 -9.265625 C 2.410156 -9.773438 3.1875 -10.03125 4.21875 -10.03125 C 4.894531 -10.03125 5.75 -9.878906 6.78125 -9.578125 L 6.625 -8.5625 C 5.28125 -9.132812 4.132812 -9.421875 3.1875 -9.421875 C 2.664062 -9.171875 2.40625 -8.742188 2.40625 -8.140625 Z M 2.40625 -8.140625 "/></g></g></g><g fill="#ffffff" fill-opacity="1"><g transform="translate(39.271182, 37.124503)"><g><path d="M 2.859375 0 L 1.34375 0 L 1.34375 -9.859375 L 2.859375 -9.859375 L 2.859375 -5 L 7.453125 -9.859375 L 8.4375 -9.859375 L 3.78125 -5.265625 L 9.0625 0 L 7.15625 0.1875 L 2.859375 -4.859375 Z M 2.859375 0 "/></g></g></g><g fill="#971f16" fill-opacity="1"><g transform="translate(48.711482, 34.117385)"><g><path d="M 12.140625 0.375 C 8.960938 0.375 6.285156 -0.484375 4.109375 -2.203125 C 1.941406 -3.929688 0.859375 -6.40625 0.859375 -9.625 C 0.859375 -11.507812 1.21875 -13.1875 1.9375 -14.65625 C 2.65625 -16.132812 3.597656 -17.296875 4.765625 -18.140625 C 7.117188 -19.859375 9.765625 -20.71875 12.703125 -20.71875 C 14.398438 -20.71875 16.171875 -20.410156 18.015625 -19.796875 L 17.71875 -17.71875 C 16.75 -18.125 16 -18.429688 15.46875 -18.640625 C 13.925781 -19.191406 12.378906 -19.46875 10.828125 -19.46875 C 8.671875 -18.976562 7.015625 -17.910156 5.859375 -16.265625 C 4.703125 -14.628906 4.125 -12.578125 4.125 -10.109375 C 4.125 -7.097656 4.910156 -4.773438 6.484375 -3.140625 C 8.066406 -1.515625 10.148438 -0.703125 12.734375 -0.703125 C 15.316406 -0.703125 17.242188 -1.257812 18.515625 -2.375 L 18.515625 -0.671875 C 16.742188 0.0234375 14.617188 0.375 12.140625 0.375 Z M 12.140625 0.375 "/></g></g></g><g fill="#ffffff" fill-opacity="1"><g transform="translate(68.150275, 37.147554)"><g><path d="M 5.8125 -10.015625 C 7.09375 -10.015625 8.15625 -9.585938 9 -8.734375 C 9.84375 -7.890625 10.265625 -6.71875 10.265625 -5.21875 C 10.265625 -4.25 10.09375 -3.398438 9.75 -2.671875 C 9.414062 -1.941406 8.976562 -1.378906 8.4375 -0.984375 C 7.375 -0.210938 6.203125 0.171875 4.921875 0.171875 C 3.648438 0.171875 2.59375 -0.253906 1.75 -1.109375 C 0.914062 -1.960938 0.5 -3.144531 0.5 -4.65625 C 0.5 -5.4375 0.609375 -6.140625 0.828125 -6.765625 C 1.054688 -7.398438 1.351562 -7.914062 1.71875 -8.3125 C 2.082031 -8.707031 2.5 -9.035156 2.96875 -9.296875 C 3.84375 -9.773438 4.789062 -10.015625 5.8125 -10.015625 Z M 2.828125 -1.6875 C 3.078125 -1.257812 3.421875 -0.921875 3.859375 -0.671875 C 4.296875 -0.429688 4.796875 -0.3125 5.359375 -0.3125 C 5.929688 -0.3125 6.441406 -0.453125 6.890625 -0.734375 C 7.335938 -1.023438 7.6875 -1.40625 7.9375 -1.875 C 8.4375 -2.800781 8.6875 -3.800781 8.6875 -4.875 C 8.6875 -6.1875 8.425781 -7.242188 7.90625 -8.046875 C 7.320312 -8.953125 6.351562 -9.40625 5 -9.40625 C 4.039062 -9.070312 3.3125 -8.492188 2.8125 -7.671875 C 2.320312 -6.847656 2.078125 -5.914062 2.078125 -4.875 C 2.078125 -3.601562 2.328125 -2.539062 2.828125 -1.6875 Z M 2.828125 -1.6875 "/></g></g></g><g fill="#ffffff" fill-opacity="1"><g transform="translate(78.92517, 37.147554)"><g><path d="M 6.578125 -2.328125 L 9.859375 -9.84375 L 11.375 -9.84375 L 11.9375 0 L 10.421875 0 L 10.015625 -8.453125 L 9.953125 -8.453125 L 6.21875 0 L 6 0 L 2.328125 -8.109375 L 2.28125 -8.109375 L 1.875 0 L 1.21875 0 L 1.765625 -9.84375 L 3.15625 -9.84375 Z M 6.578125 -2.328125 "/></g></g></g><g fill="#ffffff" fill-opacity="1"><g transform="translate(92.137423, 37.147554)"><g><path d="M 7.953125 -7.28125 C 7.953125 -6.332031 7.601562 -5.613281 6.90625 -5.125 C 6.207031 -4.632812 5.257812 -4.390625 4.0625 -4.390625 L 2.78125 -4.390625 L 2.78125 0 L 1.34375 0 L 1.34375 -9.84375 L 4.53125 -9.84375 C 5.53125 -9.84375 6.347656 -9.613281 6.984375 -9.15625 C 7.628906 -8.695312 7.953125 -8.070312 7.953125 -7.28125 Z M 2.78125 -4.8125 L 4.09375 -4.8125 C 4.5625 -4.8125 4.960938 -4.898438 5.296875 -5.078125 C 5.628906 -5.253906 5.867188 -5.484375 6.015625 -5.765625 C 6.285156 -6.265625 6.421875 -6.742188 6.421875 -7.203125 C 6.421875 -7.429688 6.359375 -7.707031 6.234375 -8.03125 C 6.003906 -8.675781 5.515625 -9.097656 4.765625 -9.296875 C 4.054688 -9.296875 3.394531 -9.210938 2.78125 -9.046875 Z M 2.78125 -4.8125 "/></g></g></g><g fill="#ffffff" fill-opacity="1"><g transform="translate(100.252033, 37.147554)"><g><path d="M 0.15625 0 L 4.5625 -10.078125 L 4.78125 -10.078125 L 9.203125 0 L 7.578125 0 L 6.46875 -2.671875 L 2.046875 -2.671875 L 0.953125 0 Z M 2.28125 -3.234375 L 6.21875 -3.234375 L 4.265625 -8.046875 Z M 2.28125 -3.234375 "/></g></g></g><g fill="#ffffff" fill-opacity="1"><g transform="translate(109.600183, 37.147554)"><g><path d="M 8.8125 0.15625 L 8.5625 0.15625 L 2.046875 -7.984375 L 1.984375 -7.984375 L 1.984375 0 L 1.34375 0 L 1.34375 -9.84375 L 2.4375 -9.84375 L 8.09375 -2.6875 L 8.15625 -2.6875 L 8.15625 -9.84375 L 8.8125 -9.84375 Z M 8.8125 0.15625 "/></g></g></g><g fill="#ffffff" fill-opacity="1"><g transform="translate(119.750881, 37.147554)"><g><path d="M 5.09375 0 L 3.65625 0 L 3.65625 -3.65625 L 0.296875 -9.84375 L 1.921875 -9.84375 L 4.671875 -4.1875 L 7.234375 -9.84375 L 7.984375 -9.84375 L 5.09375 -3.734375 Z M 5.09375 0 "/></g></g></g><g fill="#ffffff" fill-opacity="1"><g transform="translate(0.828939, 46.448965)"><g><path d="M 5.0625 -14.03125 C 6.375 -14.03125 7.429688 -13.660156 8.234375 -12.921875 C 9.046875 -12.179688 9.453125 -11.1875 9.453125 -9.9375 C 9.453125 -8.539062 9.019531 -7.507812 8.15625 -6.84375 C 7.300781 -6.175781 6.140625 -5.84375 4.671875 -5.84375 L 4.609375 -3.953125 L 3.046875 -3.953125 L 2.96875 -7.09375 L 3.53125 -7.09375 C 4.84375 -7.09375 5.867188 -7.289062 6.609375 -7.6875 C 7.359375 -8.082031 7.734375 -8.832031 7.734375 -9.9375 C 7.734375 -10.726562 7.492188 -11.351562 7.015625 -11.8125 C 6.535156 -12.28125 5.894531 -12.515625 5.09375 -12.515625 C 4.269531 -12.515625 3.617188 -12.289062 3.140625 -11.84375 C 2.671875 -11.40625 2.4375 -10.800781 2.4375 -10.03125 L 0.734375 -10.03125 C 0.734375 -10.832031 0.910156 -11.53125 1.265625 -12.125 C 1.628906 -12.726562 2.140625 -13.195312 2.796875 -13.53125 C 3.453125 -13.863281 4.207031 -14.03125 5.0625 -14.03125 Z M 3.8125 0.125 C 3.46875 0.125 3.175781 0.00390625 2.9375 -0.234375 C 2.695312 -0.472656 2.578125 -0.765625 2.578125 -1.109375 C 2.578125 -1.453125 2.695312 -1.742188 2.9375 -1.984375 C 3.175781 -2.222656 3.46875 -2.34375 3.8125 -2.34375 C 4.144531 -2.34375 4.425781 -2.222656 4.65625 -1.984375 C 4.894531 -1.742188 5.015625 -1.453125 5.015625 -1.109375 C 5.015625 -0.765625 4.894531 -0.472656 4.65625 -0.234375 C 4.425781 0.00390625 4.144531 0.125 3.8125 0.125 Z M 3.8125 0.125 "/></g></g></g></svg>